<svg width="374" height="138" viewBox="0 0 374 138" fill="none" xmlns="http://www.w3.org/2000/svg">
<path d="M65.28 7.62939e-06L36.288 137.856H14.784L-2.08616e-05 7.62939e-06H18.048L27.264 105.216L47.232 7.62939e-06H65.28ZM66.5535 137.856L73.6575 7.62939e-06H118.585L117.817 16.704H90.9375L88.6335 58.56H112.441L111.673 75.264H87.8655L85.3695 121.152H112.249L111.481 137.856H66.5535ZM131.407 7.62939e-06H166.735C180.559 7.62939e-06 187.087 7.87201 186.319 23.616L184.591 57.6C183.951 69.632 179.919 77.248 172.495 80.448L182.287 137.856H165.199L156.175 82.176H145.231L142.351 137.856H124.303L131.407 7.62939e-06ZM145.999 66.432H157.903C163.279 66.432 166.159 63.104 166.543 56.448L168.079 26.688C168.463 20.032 165.967 16.704 160.591 16.704H148.687L145.999 66.432ZM195.366 137.856L202.47 7.62939e-06H233.958C250.854 7.62939e-06 258.854 8.83201 257.958 26.496L253.158 117.888C252.518 131.2 244.966 137.856 230.502 137.856H195.366ZM214.182 121.152H227.814C232.55 121.152 235.046 119.104 235.302 115.008L239.91 26.688C240.294 20.032 237.798 16.704 232.422 16.704H219.75L214.182 121.152ZM311.124 137.856H268.116L275.22 7.62939e-06H293.268L286.932 121.152H311.892L311.124 137.856ZM321.366 137.856L328.47 7.62939e-06H373.398L372.63 16.704H345.75L343.446 58.56H367.254L366.486 75.264H342.678L340.182 121.152H367.062L366.294 137.856H321.366Z" fill="white"/>
</svg>
