<?xml version="1.0" encoding="UTF-8"?>
<svg version="1.1" xmlns="http://www.w3.org/2000/svg" width="665" height="664">
<path d="M0 0 C0.99 0 1.98 0 3 0 C4.23037695 1.42989753 5.45322673 2.86795139 6.61328125 4.35546875 C8.14413858 6.26804693 8.14413858 6.26804693 11 8.5 C14.10705716 11.0892143 16.41613738 13.89936486 19 17 C19.99 17.825 20.98 18.65 22 19.5 C25.10446403 22.08705336 27.42534724 24.89721334 30 28 C30.825 28.66 31.65 29.32 32.5 30 C35 32 35 32 37.4375 34.9375 C39.90639631 38.0731044 39.90639631 38.0731044 43 40.5 C46.10705716 43.0892143 48.41613738 45.89936486 51 49 C52.99665598 50.67067133 54.99651034 52.33752986 57 54 C58.33333333 55.66666667 59.66666667 57.33333333 61 59 C62.99665598 60.67067133 64.99651034 62.33752986 67 64 C68.875 66.3125 68.875 66.3125 70 68 C68.625 70.5 68.625 70.5 67 73 C66.34 73 65.68 73 65 73 C64.72414062 73.7425 64.44828125 74.485 64.1640625 75.25 C63.09436723 77.77706533 61.9406592 79.76084494 60.375 82 C52.97025054 92.90942456 46.56382786 104.06089638 41 116 C40.66468262 116.71897461 40.32936523 117.43794922 39.98388672 118.17871094 C16.90251677 168.45561932 13.91674704 227.03789872 29 280 C29.29729004 281.05815918 29.29729004 281.05815918 29.60058594 282.13769531 C34.68665476 299.78934595 42.20430881 317.45823298 52 333 C52.66 333 53.32 333 54 333 C55.20550232 331.56009445 56.40668241 330.11618616 57.578125 328.6484375 C59.77340559 326.10335946 62.39689255 324.1150248 65 322 C66.68711423 320.3540349 68.3545622 318.68762851 70 317 C70.825 316.195625 71.65 315.39125 72.5 314.5625 C75.07363115 312.0019495 75.07363115 312.0019495 77.4375 309 C80.06751232 305.92096119 82.8625034 303.54921599 86 301 C87.68711423 299.3540349 89.3545622 297.68762851 91 296 C93.51090797 293.48909203 96.02076025 290.9797461 98.5625 288.5 C101.01152508 286.08253252 101.01152508 286.08253252 102.9375 283.5 C105.34914516 280.57679375 108.0672892 278.39404964 111 276 C112.68711423 274.3540349 114.3545622 272.68762851 116 271 C119.38309594 267.59822715 122.80157809 264.23672779 126.24584961 260.89697266 C131.33017711 255.96015771 136.39120904 251.00014287 141.43965816 246.02665138 C144.4831227 243.03001305 147.53437394 240.0423184 150.60522461 237.07373047 C153.59446592 234.1833453 156.56020402 231.27056376 159.5119648 228.34193039 C160.62941201 227.24089571 161.75464751 226.14769851 162.88825798 225.06331253 C171.24322374 217.05697445 175.25185716 209.95690094 179 199 C179.93080595 196.90422309 180.88507268 194.81850779 181.875 192.75 C184.77779278 186.57966561 187.41110539 180.31530169 190.03198242 174.02197266 C191.99020238 169.3397012 194.02514732 164.71652523 196.1875 160.125 C198.6086295 154.96949513 200.66123431 149.73600292 202.66088867 144.40527344 C203.88794492 141.28494883 205.22543409 138.27331131 206.65625 135.2421875 C210.22882497 127.56574274 213.60321236 119.80841345 216.95898438 112.03515625 C217.99600797 109.63424235 219.03691355 107.2350377 220.078125 104.8359375 C223.73825442 96.38111832 227.29331617 87.89943701 230.6574707 79.32226562 C233.60930169 72.01757093 236.69588132 64.61985577 241 58 C241.33 58 241.66 58 242 58 C243.0599802 84.85964324 243.84884999 111.7160804 244.33154774 138.59255505 C244.56184667 151.07860348 244.87563913 163.55141099 245.39477539 176.02905273 C249.12365046 267.38089339 249.12365046 267.38089339 228.871665 290.30219364 C219.84619985 299.99418821 208.82534325 309.01881151 197 315 C196.34 315 195.68 315 195 315 C194.731875 315.598125 194.46375 316.19625 194.1875 316.8125 C193.00082594 318.99847854 191.90400887 320.41332594 190 322 C189.34 322 188.68 322 188 322 C187.731875 322.598125 187.46375 323.19625 187.1875 323.8125 C186.00082594 325.99847854 184.90400887 327.41332594 183 329 C182.34 329 181.68 329 181 329 C180.731875 329.598125 180.46375 330.19625 180.1875 330.8125 C179.00082594 332.99847854 177.90400887 334.41332594 176 336 C175.34 336 174.68 336 174 336 C173.34 337.32 172.68 338.64 172 340 C171.34 340 170.68 340 170 340 C169.67 340.99 169.34 341.98 169 343 C168.34 343 167.68 343 167 343 C166.34 344.32 165.68 345.64 165 347 C164.34 347 163.68 347 163 347 C162.731875 347.598125 162.46375 348.19625 162.1875 348.8125 C161.00082594 350.99847854 159.90400887 352.41332594 158 354 C157.34 354 156.68 354 156 354 C155.731875 354.598125 155.46375 355.19625 155.1875 355.8125 C154.00082594 357.99847854 152.90400887 359.41332594 151 361 C150.34 361 149.68 361 149 361 C148.731875 361.598125 148.46375 362.19625 148.1875 362.8125 C147.00082594 364.99847854 145.90400887 366.41332594 144 368 C143.34 368 142.68 368 142 368 C141.34 369.32 140.68 370.64 140 372 C139.34 372 138.68 372 138 372 C137.67 372.99 137.34 373.98 137 375 C136.34 375 135.68 375 135 375 C134.34 376.32 133.68 377.64 133 379 C132.34 379 131.68 379 131 379 C130.67 379.99 130.34 380.98 130 382 C129.34 382 128.68 382 128 382 C127.34 383.32 126.68 384.64 126 386 C125.34 386 124.68 386 124 386 C123.67 386.99 123.34 387.98 123 389 C122.34 389 121.68 389 121 389 C120.34 390.32 119.68 391.64 119 393 C118.34 393 117.68 393 117 393 C116.67 393.99 116.34 394.98 116 396 C115.34 396 114.68 396 114 396 C113.34 397.65 112.68 399.3 112 401 C135.64609225 418.30028938 160.62349515 432.16099054 189 440 C190.175625 440.33644531 191.35125 440.67289063 192.5625 441.01953125 C201.63063863 443.54160731 210.71160576 445.48515459 220 447 C220.95076416 447.17063965 221.90152832 447.3412793 222.88110352 447.51708984 C233.52254874 449.26832289 244.04977649 449.39711567 254.8125 449.375 C256.23722626 449.37468277 256.23722626 449.37468277 257.69073486 449.37435913 C272.84205539 449.34073486 287.17591018 448.32680471 302 445 C303.82152542 444.62196597 305.64314 444.24436128 307.46484375 443.8671875 C324.32719145 440.2326659 340.54727277 434.67942338 356 427 C357.33180311 426.35239521 358.66384797 425.7052874 359.99609375 425.05859375 C367.54112039 421.37073711 374.95193535 417.58427127 382 413 C382.65129883 412.57750977 383.30259766 412.15501953 383.97363281 411.71972656 C386.20071262 410.26512472 388.41437221 408.79196845 390.625 407.3125 C391.34945313 406.83643311 392.07390625 406.36036621 392.8203125 405.86987305 C393.490625 405.41394775 394.1609375 404.95802246 394.8515625 404.48828125 C395.45822754 404.08134033 396.06489258 403.67439941 396.68994141 403.25512695 C397.12226074 402.84093506 397.55458008 402.42674316 398 402 C398.15811388 398.94729537 398.15811388 398.94729537 397 396 C396.01 395.67 395.02 395.34 394 395 C394 394.34 394 393.68 394 393 C392.68 392.34 391.36 391.68 390 391 C390 390.34 390 389.68 390 389 C389.01 388.67 388.02 388.34 387 388 C387 387.34 387 386.68 387 386 C385.68 385.34 384.36 384.68 383 384 C383 383.34 383 382.68 383 382 C382.01 381.67 381.02 381.34 380 381 C380 380.34 380 379.68 380 379 C378.68 378.34 377.36 377.68 376 377 C376 376.34 376 375.68 376 375 C375.01 374.67 374.02 374.34 373 374 C373 373.34 373 372.68 373 372 C371.68 371.34 370.36 370.68 369 370 C369 369.34 369 368.68 369 368 C368.401875 367.731875 367.80375 367.46375 367.1875 367.1875 C365.00152146 366.00082594 363.58667406 364.90400887 362 363 C362 362.34 362 361.68 362 361 C361.401875 360.731875 360.80375 360.46375 360.1875 360.1875 C358.00152146 359.00082594 356.58667406 357.90400887 355 356 C355 355.34 355 354.68 355 354 C354.401875 353.731875 353.80375 353.46375 353.1875 353.1875 C351.00152146 352.00082594 349.58667406 350.90400887 348 349 C348 348.34 348 347.68 348 347 C346.68 346.34 345.36 345.68 344 345 C344 344.34 344 343.68 344 343 C343.01 342.67 342.02 342.34 341 342 C341 341.34 341 340.68 341 340 C339.68 339.34 338.36 338.68 337 338 C337 337.34 337 336.68 337 336 C336.401875 335.731875 335.80375 335.46375 335.1875 335.1875 C333.00152146 334.00082594 331.58667406 332.90400887 330 331 C330 330.34 330 329.68 330 329 C329.401875 328.731875 328.80375 328.46375 328.1875 328.1875 C326.00152146 327.00082594 324.58667406 325.90400887 323 324 C323 323.34 323 322.68 323 322 C322.401875 321.731875 321.80375 321.46375 321.1875 321.1875 C319.00152146 320.00082594 317.58667406 318.90400887 316 317 C316 316.34 316 315.68 316 315 C315.42989858 314.7203581 314.85979715 314.44071619 314.27241993 314.15260029 C295.83426136 304.80053177 276.6118265 289.94411075 269 270 C260.27220781 239.44909938 264.66596346 203.35913818 265.90285194 172.03646266 C266.39011144 159.47265148 266.62154808 146.90766687 266.83608496 134.33671153 C267.28171471 108.5473667 268.03446817 82.77476365 269 57 C269.99 57.33 270.98 57.66 272 58 C273.24459228 60.53740122 274.30365377 62.99493616 275.3125 65.625 C275.61591309 66.38828613 275.91932617 67.15157227 276.23193359 67.93798828 C277.16453525 70.28822228 278.08283503 72.64370626 279 75 C280.03629172 77.62714948 281.07949351 80.25150576 282.125 82.875 C282.37241943 83.49810059 282.61983887 84.12120117 282.87475586 84.76318359 C284.65967866 89.22993956 286.61015789 93.59641612 288.62890625 97.9609375 C290.25775895 101.57132895 291.78766583 105.21990647 293.3125 108.875 C296.1122764 115.58203246 298.97096569 122.26215023 301.86328125 128.9296875 C302.21044693 129.73030609 302.55761261 130.53092468 302.91529846 131.35580444 C304.67011301 135.40110981 306.42777848 139.44515152 308.1887207 143.48779297 C311.83728406 151.88216071 315.37553266 160.30285603 318.72021484 168.82324219 C319.90252801 171.75804931 321.16666186 174.63121772 322.5 177.5 C324.77703635 182.40438599 326.78253262 187.4004934 328.75854492 192.43115234 C330.66655071 197.25652064 332.76965524 201.95831283 335.01953125 206.6328125 C336.0339819 209.08204395 336.56810783 211.39007096 337 214 C337.66 214 338.32 214 339 214 C341.125 215.875 341.125 215.875 343 218 C343 218.66 343 219.32 343 220 C343.99 220.33 344.98 220.66 346 221 C347.21806251 222.44850677 348.43228719 223.9008164 349.609375 225.3828125 C351.80591106 227.93721118 354.38164104 229.88302892 357 232 C359.375 234.1875 359.375 234.1875 361 236 C361 236.66 361 237.32 361 238 C361.99 238.33 362.98 238.66 364 239 C366.1875 240.9375 366.1875 240.9375 368 243 C368 243.66 368 244.32 368 245 C368.99 245.33 369.98 245.66 371 246 C373.1875 247.9375 373.1875 247.9375 375 250 C375 250.66 375 251.32 375 252 C375.99 252.33 376.98 252.66 378 253 C380.1875 254.9375 380.1875 254.9375 382 257 C382 257.66 382 258.32 382 259 C382.99 259.33 383.98 259.66 385 260 C387.1875 261.9375 387.1875 261.9375 389 264 C389 264.66 389 265.32 389 266 C389.99 266.33 390.98 266.66 392 267 C393.68732277 268.98260426 395.35366057 270.9832342 397 273 C397.99 273.66 398.98 274.32 400 275 C400 275.66 400 276.32 400 277 C400.99 277.33 401.98 277.66 403 278 C405.1875 279.9375 405.1875 279.9375 407 282 C407 282.66 407 283.32 407 284 C407.99 284.33 408.98 284.66 410 285 C412.1875 286.9375 412.1875 286.9375 414 289 C414 289.66 414 290.32 414 291 C414.99 291.33 415.98 291.66 417 292 C419.1875 293.9375 419.1875 293.9375 421 296 C421 296.66 421 297.32 421 298 C421.99 298.33 422.98 298.66 424 299 C426.1875 300.9375 426.1875 300.9375 428 303 C428 303.66 428 304.32 428 305 C429.32 305.66 430.64 306.32 432 307 C432 307.66 432 308.32 432 309 C432.99 309.33 433.98 309.66 435 310 C435 310.66 435 311.32 435 312 C436.32 312.66 437.64 313.32 439 314 C439 314.66 439 315.32 439 316 C439.99 316.33 440.98 316.66 442 317 C444.1875 318.9375 444.1875 318.9375 446 321 C446 321.66 446 322.32 446 323 C446.99 323.33 447.98 323.66 449 324 C451.1875 325.9375 451.1875 325.9375 453 328 C453 328.66 453 329.32 453 330 C453.99 330.33 454.98 330.66 456 331 C456.33 331.66 456.66 332.32 457 333 C460.29627432 332.26737815 460.29627432 332.26737815 461.796875 328.9296875 C462.45903533 327.58353738 463.10929812 326.23149458 463.75 324.875 C464.09925537 324.15143311 464.44851074 323.42786621 464.80834961 322.68237305 C465.53075387 321.18113948 466.24873524 319.67777001 466.96240234 318.17236328 C467.89680834 316.21604691 468.85760265 314.27643392 469.83203125 312.33984375 C477.34347215 297.02871252 482.34244864 280.62989472 486 264 C486.27585937 262.75605469 486.55171875 261.51210938 486.8359375 260.23046875 C496.28152831 214.07800275 491.72654653 162.95752253 472 120 C471.72075684 119.37351562 471.44151367 118.74703125 471.15380859 118.1015625 C464.34900994 102.84384368 455.96047174 89.1240369 446.3828125 75.4609375 C444.46244966 72.70876778 442.68152786 69.90648193 441 67 C441.721875 66.46375 442.44375 65.9275 443.1875 65.375 C446.09428514 63.06168974 446.09428514 63.06168974 448.4375 60.0625 C451.05427709 56.93513226 453.87436967 54.60469194 457 52 C457.825 51.01 458.65 50.02 459.5 49 C462.08705336 45.89553597 464.89721334 43.57465276 468 41 C468.66 40.175 469.32 39.35 470 38.5 C472 36 472 36 474.9375 33.5625 C478.0731044 31.09360369 478.0731044 31.09360369 480.5 28 C483.0892143 24.89294284 485.89936486 22.58386262 489 20 C489.825 19.01 490.65 18.02 491.5 17 C494.08705336 13.89553597 496.89721334 11.57465276 500 9 C501.36244796 7.35704805 502.69864875 5.69175663 504 4 C506 1.625 506 1.625 508 0 C510.51959509 0.24185316 511.71115682 0.72395079 513.54882812 2.48022461 C514.03802734 3.11452393 514.52722656 3.74882324 515.03125 4.40234375 C515.58820557 5.1180957 516.14516113 5.83384766 516.71899414 6.57128906 C517.30672607 7.35213867 517.89445801 8.13298828 518.5 8.9375 C519.1180249 9.74799805 519.7360498 10.55849609 520.37280273 11.39355469 C535.93765477 32.02431614 549.73407284 54.25580179 560 78 C560.39783691 78.91523438 560.79567383 79.83046875 561.20556641 80.7734375 C578.9400464 122.06855127 588.18894926 165.53312662 588.18530273 210.42553711 C588.18747292 213.40037716 588.20564294 216.37483533 588.22460938 219.34960938 C588.27834615 237.19862209 587.18876253 254.89256572 583.75 272.4375 C583.53311523 273.56671875 583.31623047 274.6959375 583.09277344 275.859375 C572.51198357 329.50081892 550.38077913 379.56881351 515.63671875 421.9609375 C514.10919988 423.86395624 512.69990927 425.80609275 511.3125 427.8125 C509.0677256 430.9066485 506.76245339 433.36603282 504 436 C498.42676898 441.41281249 498.42676898 441.41281249 493.3125 447.25 C491.05520597 449.93434965 488.76234872 451.85917974 486 454 C484.32485173 455.65814168 482.65942564 457.32612363 481 459 C454.52343879 485.0438091 420.22902842 507.37637006 385.48046875 520.66796875 C382.28219423 521.89199974 379.14406339 523.2066489 376 524.5625 C352.86430957 534.21005218 328.2611951 539.87229273 303.5625 543.6875 C302.79478271 543.80697998 302.02706543 543.92645996 301.23608398 544.04956055 C287.30616678 546.09629059 273.4352306 546.18632055 259.38330078 546.18530273 C256.03534997 546.18747704 252.68773604 546.20565161 249.33984375 546.22460938 C232.14675898 546.2704011 214.99794514 545.63678142 198.125 542.0625 C197.25464111 541.88630127 196.38428223 541.71010254 195.48754883 541.52856445 C193.76682297 541.17997665 192.04680363 540.82787637 190.32763672 540.47167969 C188.28798901 540.05835901 186.24014205 539.68593304 184.19140625 539.3203125 C176.20542766 537.87802874 168.48032768 535.81418303 160.6875 533.5625 C159.68485107 533.2739917 158.68220215 532.9854834 157.64916992 532.68823242 C152.0659039 531.03815852 146.67058519 529.15615634 141.28930664 526.93530273 C139.23582467 526.09634684 137.17588207 525.32043146 135.0859375 524.578125 C125.95257958 521.30934427 117.39378168 517.39478702 108.79296875 512.91992188 C106.30420276 511.64300599 103.77407415 510.45531631 101.25 509.25 C76.89169966 497.03775431 54.71044668 480.8303475 34.3125 462.8828125 C32.30353265 461.11582723 30.28360444 459.43264651 28.18359375 457.76953125 C26 456 26 456 24.0625 453.5625 C22.10999332 451.13665837 20.03491117 449.37007808 17.62109375 447.42578125 C15.14986043 445.25228688 13.08902911 442.77398841 10.9609375 440.26953125 C8.82950308 437.8026719 6.60503471 435.44048199 4.375 433.0625 C-8.30190324 419.15070816 -19.28577435 403.42636265 -28.984375 387.33203125 C-30.31998265 385.1241372 -31.68445694 382.93343081 -33.078125 380.76171875 C-40.6669181 368.81751339 -46.30017812 355.92393897 -52 343 C-52.48944092 341.90171875 -52.48944092 341.90171875 -52.98876953 340.78125 C-60.81420821 323.05282256 -65.94305052 303.91254391 -70 285 C-70.26296875 283.88753906 -70.5259375 282.77507812 -70.796875 281.62890625 C-72.45518636 274.44571062 -73.61535522 267.23501215 -74.625 259.9375 C-74.74818604 259.05167236 -74.87137207 258.16584473 -74.99829102 257.25317383 C-76.88378591 243.03834049 -77.20375405 228.94195846 -77.1875 214.625 C-77.18689575 213.64578583 -77.1862915 212.66657166 -77.18566895 211.65768433 C-77.14919725 189.91187787 -75.54615523 169.28465775 -71 148 C-70.68705434 146.47535182 -70.37454054 144.95061493 -70.0625 143.42578125 C-65.73455598 122.71623934 -59.64842865 102.35714992 -50.92724609 83.05786133 C-50.01214754 81.02695935 -49.12865501 78.98438165 -48.25 76.9375 C-36.64648208 51.06298877 -21.57234493 27.20818637 -4 5 C-3.30777344 4.05511719 -2.61554688 3.11023438 -1.90234375 2.13671875 C-1.27457031 1.43160156 -0.64679688 0.72648437 0 0 Z " fill="#FFFFFF" transform="translate(77,118)"/>
<path d="M0 0 C1.10960587 -0.0033284 2.21921173 -0.0066568 3.36244202 -0.01008606 C5.69775991 -0.01511468 8.0330849 -0.01749565 10.3684082 -0.01733398 C13.87008078 -0.01950639 17.37143038 -0.03766768 20.87304688 -0.05664062 C39.87948801 -0.10606455 58.37628185 1.06295747 77.03515625 4.79296875 C77.99923401 4.98271774 77.99923401 4.98271774 78.98278809 5.17630005 C104.53619084 10.23700888 129.48470857 17.85483892 152.97265625 29.16796875 C154.33220052 29.79413215 155.69295084 30.41768139 157.0546875 31.0390625 C169.37609686 36.68753507 180.97145549 43.11053973 192.3515625 50.5 C195.89123414 52.75251831 199.52356513 54.83528094 203.171875 56.90625 C203.76613281 57.32261719 204.36039063 57.73898438 204.97265625 58.16796875 C204.97265625 58.82796875 204.97265625 59.48796875 204.97265625 60.16796875 C205.66488281 60.39742187 206.35710937 60.626875 207.0703125 60.86328125 C210.60058502 62.4502409 213.42120159 64.6300457 216.41015625 67.04296875 C217.31507813 67.76347412 217.31507813 67.76347412 218.23828125 68.49853516 C224.4184351 73.4551337 230.41600461 78.62179242 236.39794922 83.81420898 C238.00631486 85.19690472 239.63047014 86.55846584 241.26171875 87.9140625 C245.46406026 91.4079401 245.46406026 91.4079401 246.97265625 93.16796875 C246.97265625 93.82796875 246.97265625 94.48796875 246.97265625 95.16796875 C247.96265625 95.49796875 248.95265625 95.82796875 249.97265625 96.16796875 C249.97265625 97.15796875 249.97265625 98.14796875 249.97265625 99.16796875 C248.52140817 100.42131936 247.06250195 101.66794897 245.55078125 102.84765625 C243.77763166 104.24257808 243.77763166 104.24257808 241.97265625 106.66796875 C239.97265625 109.16796875 239.97265625 109.16796875 237.03515625 111.60546875 C233.89955185 114.07436506 233.89955185 114.07436506 231.47265625 117.16796875 C228.88560289 120.27243278 226.07544291 122.59331599 222.97265625 125.16796875 C222.31265625 125.99296875 221.65265625 126.81796875 220.97265625 127.66796875 C218.97265625 130.16796875 218.97265625 130.16796875 216.03515625 132.60546875 C212.89955185 135.07436506 212.89955185 135.07436506 210.47265625 138.16796875 C207.88344195 141.27502591 205.07329139 143.58410613 201.97265625 146.16796875 C201.14765625 147.15796875 200.32265625 148.14796875 199.47265625 149.16796875 C196.88560289 152.27243278 194.07544291 154.59331599 190.97265625 157.16796875 C189.62971144 158.82690057 188.29520937 160.4927348 186.97265625 162.16796875 C184.72265625 163.98046875 184.72265625 163.98046875 182.97265625 165.16796875 C179.54409006 163.65814144 177.01587409 161.65082906 174.22265625 159.16796875 C173.4234375 158.46671875 172.62421875 157.76546875 171.80078125 157.04296875 C169.97265625 155.16796875 169.97265625 155.16796875 169.97265625 153.16796875 C169.43640625 152.93335938 168.90015625 152.69875 168.34765625 152.45703125 C165.29767681 150.80161478 162.68001593 148.69359581 159.97265625 146.54296875 C153.8382505 141.75785602 147.54247411 137.34279683 140.97265625 133.16796875 C139.86792969 132.46027344 138.76320313 131.75257813 137.625 131.0234375 C101.0871723 108.09189451 58.05394533 96.7042917 15.09765625 96.79296875 C13.67667633 96.79328598 13.67667633 96.79328598 12.22698975 96.79360962 C-2.90511318 96.82726203 -17.22202518 97.84537666 -32.02734375 101.16796875 C-33.84886917 101.54600278 -35.67048375 101.92360747 -37.4921875 102.30078125 C-67.51311166 108.76745426 -97.63959039 121.34167533 -122.02734375 140.16796875 C-124.02204769 141.6542696 -126.02203146 143.13351201 -128.02734375 144.60546875 C-128.91421875 145.26417969 -129.80109375 145.92289063 -130.71484375 146.6015625 C-133.02734375 148.16796875 -133.02734375 148.16796875 -136.02734375 149.16796875 C-136.02734375 149.82796875 -136.02734375 150.48796875 -136.02734375 151.16796875 C-136.83171875 151.43609375 -137.63609375 151.70421875 -138.46484375 151.98046875 C-139.73328125 152.56828125 -139.73328125 152.56828125 -141.02734375 153.16796875 C-141.35734375 154.15796875 -141.68734375 155.14796875 -142.02734375 156.16796875 C-143.734375 157.921875 -143.734375 157.921875 -145.83984375 159.73046875 C-146.52691406 160.32988281 -147.21398437 160.92929688 -147.921875 161.546875 C-149.89953015 163.06955939 -151.78842058 164.09107391 -154.02734375 165.16796875 C-166.0390625 153.15625 -166.0390625 153.15625 -168.12426758 151.07080078 C-169.27481345 149.92040251 -170.42561625 148.770261 -171.5769043 147.62060547 C-173.55210603 145.64796561 -175.51599708 143.66678585 -177.46484375 141.66796875 C-180.02539425 139.0943376 -180.02539425 139.0943376 -183.02734375 136.73046875 C-186.10638256 134.10045643 -188.47812776 131.30546535 -191.02734375 128.16796875 C-193.88139662 125.15964275 -196.88029914 122.42287464 -200.02734375 119.73046875 C-203.45007666 116.77009375 -206.19512664 113.68910353 -209.02734375 110.16796875 C-211.54136103 107.59110104 -214.10938552 105.08974287 -216.71484375 102.60546875 C-218.73905421 100.47184151 -219.93069698 98.8597381 -221.02734375 96.16796875 C-220.30546875 95.61109375 -219.58359375 95.05421875 -218.83984375 94.48046875 C-216.04474879 92.18227956 -213.57596429 89.73521956 -211.02734375 87.16796875 C-193.71351271 70.13712752 -173.66231036 56.51253262 -152.79980469 44.21875 C-151.19361449 43.26654027 -149.59809598 42.29638613 -148.00390625 41.32421875 C-113.50194812 20.52851796 -73.09009226 8.55924732 -33.52734375 2.48046875 C-32.75124756 2.36098877 -31.97515137 2.24150879 -31.17553711 2.1184082 C-20.80842907 0.60161869 -10.47108535 0.01129666 0 0 Z " fill="#ED6516" transform="translate(318.02734375,-0.16796875)"/>
<path d="M0 0 C3.40066339 2.12541462 3.88251741 3.5692305 4.9375 7.4375 C5.02356409 12.34315289 3.49575538 14.33804958 0.3125 17.875 C-3.2080174 19.58768414 -6.38995866 19.19841536 -10 18 C-13.27385787 15.21722081 -13.92472808 13.71508327 -14.375 9.4375 C-14.03391919 6.31092594 -13.78579555 4.53770946 -12 2 C-7.97464442 -0.68357039 -4.72750362 -0.67535766 0 0 Z M-7 2 C-7.33 2.66 -7.66 3.32 -8 4 C-5.69 4.66 -3.38 5.32 -1 6 C-1.33 7.98 -1.66 9.96 -2 12 C-1.01 12.66 -0.02 13.32 1 14 C2.43735246 11.12529507 2.38172649 9.18105412 2 6 C-0.14670688 3.51591299 -0.14670688 3.51591299 -3 2 C-4.32 2 -5.64 2 -7 2 Z M-10 5 C-11.33187793 6.11166864 -11.33187793 6.11166864 -11.1875 8.9375 C-11.33278733 12.10892859 -11.33278733 12.10892859 -9 14 C-9 11.03 -9 8.06 -9 5 C-9.33 5 -9.66 5 -10 5 Z M-6 6 C-6 6.99 -6 7.98 -6 9 C-5.01 8.67 -4.02 8.34 -3 8 C-3.33 7.34 -3.66 6.68 -4 6 C-4.66 6 -5.32 6 -6 6 Z M-6 11 C-6 12.32 -6 13.64 -6 15 C-6.99 15.495 -6.99 15.495 -8 16 C-6.02 16 -4.04 16 -2 16 C-2.96885372 14.31503702 -3.96986723 12.64821244 -5 11 C-5.33 11 -5.66 11 -6 11 Z " fill="#FFFFFF" transform="translate(582,598)"/>
</svg>
